<?xml version="1.0" standalone="no"?>
<!DOCTYPE svg PUBLIC "-//W3C//DTD SVG 20010904//EN"
 "http://www.w3.org/TR/2001/REC-SVG-20010904/DTD/svg10.dtd">
<svg version="1.0" xmlns="http://www.w3.org/2000/svg"
 width="512.000000pt" height="512.000000pt" viewBox="0 0 512.000000 512.000000"
 preserveAspectRatio="xMidYMid meet">
<g transform="translate(0.000000,512.000000) scale(0.100000,-0.100000)"
fill="#000000" stroke="none">
<path d="M2915 3631 c-81 -20 -125 -64 -147 -145 l-13 -48 -75 6 c-41 4 -446
27 -899 52 -781 43 -826 45 -867 29 -80 -30 -134 -123 -119 -204 19 -105 92
-161 207 -161 36 0 425 20 865 45 439 25 819 45 846 45 l47 0 0 -198 0 -199
-52 -28 c-81 -43 -160 -108 -235 -190 l-68 -75 -976 0 -976 0 -24 -26 c-32
-34 -34 -104 -2 -135 17 -17 190 -63 890 -233 l868 -211 -3 -185 c-4 -217 8
-298 62 -415 88 -191 272 -294 611 -342 178 -26 1182 -26 1360 0 258 36 407
96 515 206 109 111 149 218 157 424 6 148 -14 258 -71 389 -214 492 -920 904
-1556 909 l-110 1 0 154 0 154 48 0 c26 0 405 -20 842 -45 881 -50 917 -51
963 -31 39 16 82 61 96 99 18 46 13 124 -9 167 -23 46 -82 89 -131 96 -19 3
-432 -18 -918 -45 -486 -28 -888 -48 -892 -45 -5 3 -9 17 -9 32 0 32 -35 93
-70 120 -24 19 -93 43 -115 41 -5 -1 -23 -4 -40 -8z m795 -1107 c352 -66 711
-337 784 -590 15 -49 19 -89 17 -151 -1 -47 -59 -107 -127 -133 -87 -32 -224
-50 -429 -57 -263 -8 -388 17 -479 97 -88 77 -111 162 -103 374 6 177 27 287
68 373 50 104 99 120 269 87z"/>
<path d="M371 2904 c-223 -60 -365 -277 -332 -509 43 -299 365 -475 644 -351
53 24 125 78 158 120 l19 24 -117 32 c-64 17 -128 29 -142 27 -14 -3 -46 -10
-71 -17 -83 -21 -182 21 -234 101 -82 123 -36 283 99 345 79 37 162 29 232
-22 29 -22 41 -24 162 -24 72 0 131 2 131 4 0 3 -16 32 -35 65 -101 172 -317
258 -514 205z"/>
<path d="M4861 969 c-18 -6 -55 -33 -81 -60 -57 -60 -108 -79 -282 -105 -101
-16 -244 -18 -1354 -23 l-1240 -6 -41 -27 c-102 -67 -112 -224 -18 -300 63
-51 6 -49 1351 -45 1330 4 1327 4 1525 50 194 46 327 133 375 244 23 55 15
150 -16 197 -43 65 -142 98 -219 75z"/>
</g>
</svg>
